<?xml version="1.0" encoding="UTF-8"?>
<!DOCTYPE svg PUBLIC "-//W3C//DTD SVG 1.1//EN" "http://www.w3.org/Graphics/SVG/1.1/DTD/svg11.dtd">
<!-- Creator: CorelDRAW 2018 (64 Bit) -->
<svg xmlns="http://www.w3.org/2000/svg" xml:space="preserve" width="42.3269mm" height="25.4001mm" version="1.1" style="shape-rendering:geometricPrecision; text-rendering:geometricPrecision; image-rendering:optimizeQuality; fill-rule:evenodd; clip-rule:evenodd"
viewBox="0 0 11725.83 7036.6"
 xmlns:xlink="http://www.w3.org/1999/xlink">
 <defs>
  <style type="text/css">
   <![CDATA[
    .fil1 {fill:#E7BD0F;fill-rule:nonzero}
    .fil0 {fill:#FFFFFF;fill-rule:nonzero}
   ]]>
  </style>
 </defs>
 <g id="Camada_x0020_1">
  <metadata id="CorelCorpID_0Corel-Layer"/>
  <g id="_468801350240">
   <path class="fil0" d="M1016.67 4210.69c-147.3,830.62 -125.25,1568.6 -123.03,1630.88 2.49,70.48 60.42,125.94 130.37,125.94 1.58,0 3.13,-0.06 4.71,-0.11 72.06,-2.55 128.4,-63.02 125.85,-135.05 -0.47,-14.13 -20.33,-681.49 101.73,-1452.61 31.47,17.34 50.89,25.87 54.16,27.26 450.28,215.5 977.06,-29.25 1275.95,-348.03 281.16,-299.86 472.11,-683.41 552.26,-1109.2 51.56,-274.01 42.63,-508.88 -26.54,-698.01 -55.32,-151.26 -173.03,-272.96 -322.93,-333.88 -151.09,-61.36 -321.83,-56.15 -468.49,14.49 -701.72,337.42 -1060.72,1167.27 -1243.39,1976.36 -137.16,-143.5 -288.44,-355.79 -398.29,-659.44 -24.52,-67.79 -99.48,-102.86 -167.19,-78.37 -67.79,24.54 -102.89,99.4 -78.37,167.19 158.18,437.4 395.32,711.52 583.2,872.59zm1417.18 -2043.04l0 0c80.39,-38.62 174.09,-41.58 257.06,-7.84 82.97,33.74 145.47,98.21 175.97,181.65 52.83,144.42 57.93,332.8 15.18,559.99 -70.95,376.9 -239.02,715.38 -486.13,978.89 -235.89,251.57 -640.85,450.04 -977.67,288.89 -1.44,-0.61 -45.16,-19.95 -112.61,-65.63 158.66,-792.45 480.01,-1624.2 1128.21,-1935.94z"/>
   <path class="fil0" d="M3107.37 3948.87c-0.11,-0.86 -0.19,-1.5 -0.19,-1.58 -5.57,-53.69 -53.36,-92.11 -107.18,-87.35 -53.8,5.37 -93.05,53.38 -87.68,107.18 0.58,5.73 7.95,73.52 38.37,160.98 -19.97,31.86 -38.2,65.49 -54.19,100.76 -61.61,135.97 -85.08,280.88 -66.02,408.15 21.11,140.73 94.38,249.16 201.12,297.53 41.53,18.84 85.41,27.79 130.15,27.79 183.09,0 380.33,-150.43 489.54,-391.33 5.65,-12.49 10.64,-25.1 15.65,-37.7 156.58,-27.45 278.14,-83.88 371.8,-150.7l-287.36 1492.47c-10.19,53.11 24.54,104.44 77.65,114.69 6.23,1.16 12.49,1.77 18.62,1.77 46.01,0 87.04,-32.58 96.07,-79.42l203.09 -1054.74c34.46,28.53 74.19,50.47 117.77,65.43 2.41,1.08 197.19,86.21 517.49,-0.66 0.78,-0.19 1.5,-0.44 2.24,-0.64 7.18,-1.97 14.35,-3.88 21.64,-6.01 24.71,-7.23 42.69,-13.35 55.13,-18.48 202.76,-73.47 355.46,-207.41 464.36,-338.61 33.99,189.85 145.86,273.71 244.62,310.22 54.94,20.33 109.04,30.45 161.31,30.45 73.41,0 143.28,-19.95 206.8,-59.67 64.63,-40.36 118.62,-98.68 163.95,-166.11 12.69,28.17 28.28,55.54 47.65,81.06 26.98,35.57 59.89,64.44 97.1,87.38l0 0.44c0,0 3.85,2.52 10.78,6.23 1.61,0.91 3.1,2.02 4.74,2.91 0.08,-0.11 0.19,-0.19 0.3,-0.3 49.17,24.79 206.08,83.5 362.55,-76.71 6.95,-7.12 13.19,-13.91 19.03,-20.5 3.46,4.52 7.01,9.03 10.55,13.44 114.58,140.7 321.8,169.13 471.87,64.83 9.45,-6.57 48.4,-34.63 91.61,-79.18 35.02,62.66 85.27,111.89 149.79,141.12 40.34,18.28 84.02,27.34 129.21,27.34 74.27,0 152.64,-24.41 227.05,-72.22 49.15,-31.55 94.99,-72.47 136.47,-120.04 9.7,22.3 21.28,42.97 34.96,61.69 71.25,97.54 168.77,107.46 173.31,107.6 13.6,1.91 26.87,2.83 39.92,2.83 244.15,0 393.38,-323.65 475.88,-596.61l0.06 0.06c0,0 11.66,-47.73 40.34,-53.13l324.1 -60.89 0 0 12.83 -2.41c0,0 22.41,-3.13 22.38,14.32 -0.72,3.99 -2.16,8.73 -5.26,14.82 0,0 0,0.03 0,0.03 -98.37,190.38 -193.84,455.77 -88.73,637.47 18.15,31.36 51.03,48.92 84.85,48.92 16.62,-0.03 33.49,-4.27 48.92,-13.19 46.82,-27.07 62.83,-86.96 35.74,-133.78 -84.49,-146.13 110.37,-504.86 218,-655.7 23.22,-32.52 24.32,-75.91 2.8,-109.62 -21.47,-33.69 -61.25,-50.92 -100.56,-43.52l-531.09 99.79c7.31,-36.07 12.55,-65.41 15.9,-85.27 8.98,-53.33 -26.98,-103.8 -80.34,-112.78 -53.16,-9 -103.8,26.96 -112.78,80.34 -56.99,338.75 -218.52,796.99 -382.08,773.69 -0.17,0 -19.78,-6.21 -35.99,-28.48 -3.3,-4.49 -7.15,-10.83 -11.03,-19.03 -0.69,-2.77 -1.94,-5.79 -3.96,-9.14 -6.15,-15.38 -11.91,-36.15 -15.1,-63.97 -0.58,-48.59 14.32,-103.03 22.72,-129.68l158.18 -473.44c17.12,-51.28 -10.55,-106.74 -61.83,-123.89 -51.61,-17.26 -106.82,10.53 -123.94,61.86l-16.18 48.48c-35.02,-62.91 -85.41,-112.34 -150.09,-141.65 -106.63,-48.4 -236.56,-32.05 -356.29,44.88 -108.24,69.51 -201.84,182.67 -263.46,318.67 -37.81,83.41 -60.45,167.63 -68.95,247.83 -2.02,7.84 -3.46,15.93 -3.46,24.43 0,80.31 -87.07,169.93 -145.63,210.63 -66.51,46.24 -157.91,34.13 -208.19,-27.62 -13.57,-16.7 -25.82,-35.13 -36.85,-55.05 308.97,-440.17 728.95,-1266.39 735.88,-1693.26 1.77,-110.01 -57.23,-211.96 -154,-266.12 -96.99,-54.19 -210.07,-51.31 -302.74,7.62 -191.62,122 -350.36,386.54 -473.03,790.73 -8.28,32.94 -172.98,699.64 -28.42,1135.91 -15.85,20.97 -30.78,39.73 -44.85,56.65 -128.54,141.15 -213.92,-11.58 -220.21,-23.38 -40.78,-87.43 -36.82,-208.27 -29.42,-264.73 50.67,-173.45 68.04,-327.51 71.28,-360.03 5.35,-53.8 -33.88,-101.78 -87.74,-107.16 -53.13,-5.07 -101.81,33.85 -107.16,87.71 -6.87,68.79 -26.48,189.96 -62.28,315.23 -0.75,1.91 -1.05,4.02 -1.69,5.98 -47.12,162.76 -121.64,331.16 -231.13,399.59 -57.84,36.1 -120.2,39.78 -196.41,11.64 -33.77,-12.49 -136.58,-50.47 -126.52,-280.69 2.94,-67.24 14.96,-135.94 29.5,-197.22 1.41,-3.46 2.38,-5.93 2.52,-6.32 3.16,-8.45 4.65,-17.04 5.43,-25.6 26.21,-100.48 56.38,-174.17 56.9,-175.42 20.64,-49.95 -3.08,-107.21 -53,-127.9 -49.95,-20.64 -107.13,2.96 -127.9,52.89 -2.52,6.07 -40.36,98.07 -70.98,222.29 -26.18,61.25 -140.15,302.63 -365.82,463.19 81.61,-142.39 91.14,-301.41 10.64,-426.32 -128.82,-199.88 -432.22,-225.92 -690.91,-59.23 -7.78,5.01 -15.43,10.17 -22.94,15.38l0.06 -0.25c2.55,-13.24 2.3,-26.37 -0.33,-38.81 34.07,-64.77 47.51,-112.06 49.15,-118.07 14.02,-52 -16.68,-105.24 -68.56,-119.57 -51.78,-14.32 -105.74,16.21 -120.37,68.04 -3.71,13.16 -86.29,289.75 -424.83,388.73 5.46,-54.08 4.79,-107.04 -2.71,-157.24 -21.11,-140.7 -94.38,-249.13 -201.07,-297.5 -106.68,-48.34 -236.58,-32.02 -356.29,44.88 -18.01,11.58 -35.46,24.79 -52.58,38.67zm4304 320.3l0 0c45.57,-100.51 115.13,-186.08 190.9,-234.76 27.29,-17.48 73.27,-41.53 120.31,-41.53 16.57,0 33.24,2.99 49.31,10.28 70.37,31.86 109.62,148.27 85.24,292.65 0,0.03 0,0.06 -0.03,0.08 -3.99,16.7 -7.48,32.99 -10.72,49.06 -8.81,34.02 -20.83,69.04 -36.96,104.63 -45.54,100.51 -115.13,186.05 -190.9,234.73 -36.87,23.66 -107.93,59.17 -169.6,31.28 -94.13,-42.63 -132.7,-236.53 -37.57,-446.43zm-646.73 -789.26l0 0c133.83,-440.51 285.7,-611.79 389.56,-677.89 18.15,-11.55 35.76,-15.46 51.39,-15.46 22.72,0 41.19,8.28 50.56,13.55 34.32,19.2 54.44,53.58 53.8,92 -5.9,363.3 -346.23,1036.15 -612.82,1453.69 -42.58,-304.4 25.54,-698.56 67.51,-865.89zm-2350.68 809.29l0 0c80.2,-51.67 168.24,-77.46 244.67,-77.46 76.82,0 141.92,26.07 175.53,78.21 67.01,103.97 -12.19,279.36 -172.95,382.97 -160.82,103.61 -353.19,103.25 -420.23,-0.72 -66.99,-103.97 12.22,-279.36 172.98,-382.99zm-1301.52 466.96l0 0c-61.67,-27.95 -81.78,-104.8 -88.23,-148.16 -12.13,-80.87 2.24,-177.88 39.03,-270.27 25.49,32.27 55.07,63.16 89.67,90.89 82.89,66.46 180.79,104.94 291.96,115.91 -97.93,172.04 -246.92,250.32 -332.44,211.62zm153.34 -681.19l0 0c27.29,-17.51 73.27,-41.5 120.31,-41.5 16.54,0 33.24,2.96 49.28,10.22 61.64,27.95 81.75,104.8 88.23,148.16 7.31,48.9 4.74,103.78 -6.34,159.93 -95.85,0.69 -176.83,-24.21 -240.91,-75.16 -43.77,-34.85 -76.46,-78.54 -100.87,-122.64 28.2,-31.61 58.65,-58.68 90.28,-79.01z"/>
   <path class="fil0" d="M9811.55 5958.75c-63.38,-42.88 -156.74,-106.8 -283.65,-174.86 -251.63,-138.1 -637.2,-303.07 -1128.98,-393.08 -245.12,-46.15 -515.53,-74.74 -802.09,-75.6 -286.39,-2.08 -589.27,18.09 -897.38,70.09 -307.89,51.56 -623.6,122.67 -934.56,224.67 -155.61,50.39 -310.74,105.96 -464.75,165.83 -76.71,30.33 -153.59,61.14 -230.63,94.16 -78.43,32.33 -148.63,65.38 -226.17,98.51 -147.46,63.69 -294.93,127.38 -441.81,190.82 -73.58,31.33 -146.44,64.41 -220.18,94.11 -74.69,26.82 -149.18,53.55 -223.37,80.17 -74.19,26.76 -148.07,53.44 -221.57,79.95 -73.47,26.54 -145.5,57.21 -219.99,76.57 -147.85,43.69 -293.9,86.88 -437.6,129.35 -144.58,38.09 -289.22,62.66 -429.23,96.82 -35.13,8.01 -70.06,15.93 -104.8,23.82 -35.04,4.99 -69.89,9.92 -104.55,14.82 -69.4,9.75 -137.99,19.42 -205.64,28.92 -135.38,24.96 -267.69,23.27 -395.93,32.86 -128.68,13.33 -251.68,2.85 -370.86,0.08 -237.89,-10.19 -453.08,-48.84 -641.35,-95.58 -92.97,-26.23 -178.16,-57.95 -258,-85.02 -38.45,-17.01 -75.35,-33.33 -110.62,-48.92 -35.68,-15.24 -69.51,-30.28 -99.23,-48.65 -60.92,-34.49 -116.69,-64.16 -160.84,-96.41 -22.55,-15.46 -44.16,-29.14 -62.89,-42.97 -18.12,-14.63 -34.57,-27.9 -49.31,-39.78 -58.84,-47.93 -85.55,-79.42 -85.55,-79.42 0,0 21.41,34.82 73.25,92.03 13.05,14.24 27.62,30.14 43.69,47.65 16.73,16.76 36.24,33.71 56.79,52.91 39.86,40.17 92.17,77.79 150.76,120.81 28.53,22.88 61.14,42.63 95.77,62.89 34.55,20.72 70.67,42.41 108.35,65.02 38.4,21.28 80.5,38.87 123.5,59.04 43.52,18.59 87.26,42.86 135.38,58.81 48.15,16.34 97.87,33.19 149.04,50.56 25.71,8.67 51.78,17.48 78.21,26.4 26.51,8.81 54.27,13.21 81.95,20.17 55.82,12.36 113.08,24.99 171.68,37.95 58.62,15.07 119.43,21.55 181.65,28.23 124.36,13.21 254.59,34.32 389.39,31.58 134.72,1.3 275.4,8.17 417.35,-8.48 71.39,-5.85 143.75,-11.75 217,-17.76 36.68,-3.08 73.55,-6.18 110.67,-9.28 36.54,-6.07 73.27,-12.13 110.23,-18.23 73.91,-12.63 148.63,-25.4 224.09,-38.29 74.96,-14.85 152.51,-23.77 227.41,-43.96 150.51,-38.76 303.54,-78.15 458.43,-118.04 154.94,-40.14 305.43,-98.43 459.84,-150.15 76.9,-26.65 154.11,-53.38 231.57,-80.2 76.18,-29.67 151.2,-62.58 227.16,-93.86 151.51,-63.38 303.65,-127.05 455.77,-190.68 72.14,-30.86 148.68,-68.43 220.38,-98.62 72.06,-31.91 145.61,-62.39 219.32,-92.56 147.52,-59.34 295.92,-114.47 444.61,-164.58 297.95,-97.85 594.56,-183.92 887.24,-241.24 292.43,-57.21 578.58,-95.24 851.51,-109.32 272.85,-12.94 532.09,-6.73 770.12,17.48 237.83,25.32 454.75,64.88 644.4,112.56 189.38,48.56 352.24,102.47 483.97,153.92 131.42,52.05 233.59,97.68 302.16,131.28 68.4,33.13 106.05,52.66 106.96,46.71 -1.39,5.73 -35.24,-18.81 -98.07,-62.03z"/>
   <path class="fil1" d="M10539.51 3097.78c-7.65,-54.85 -23.08,-108.46 -34.43,-163.17l-18.64 -81.95 -25.96 -80.2c-18.34,-53.19 -33.74,-107.9 -54.99,-160.48 -84.72,-211.07 -203.37,-410.39 -344.43,-595.37 -144.36,-183.03 -319.64,-342.58 -512.56,-478.71l-150.4 -93.97 -37.76 -23.35 -40.72 -20.2 -81.67 -40.2 -81.86 -39.92c-27.62,-14.27 -53.16,-20.94 -79.87,-31.78l-164.31 -60.92c-228.27,-64.33 -463.64,-104.11 -700.25,-105.66 -236.11,2.3 -470.84,34.93 -693.57,103.47 -221.01,72.3 -432,168.68 -621.24,294.73 -47.34,31.22 -91.06,67.51 -136.38,100.87l-66.85 51.28 -61.86 56.85c-40.39,38.59 -83.52,73.94 -120.95,114.75 -36.87,41.25 -73.61,82.36 -110.2,123.28 -138.13,170.93 -256.81,349.56 -339.78,546.8 -0.66,1.3 -1.16,2.6 -1.8,3.93l-0.14 -0.03 -8.75 19.28c-5.15,11.14 -10.44,22.27 -15.07,33.33l-13.93 30.75c-1.16,2.3 -2.22,4.49 -3.1,6.9l-2.08 4.6 1.05 0.39c-1.63,5.71 -3.63,11.3 -3.63,17.51 0,36.71 30.39,66.46 67.84,66.46 21.39,0 39.67,-10.31 52.08,-25.49l1.3 0.58c1.05,-2.44 2.22,-4.79 3.27,-7.2 1.19,-1.88 2.74,-3.46 3.74,-5.46l0.5 0.19 1.41 -2.94c0.06,-0.17 0.17,-0.33 0.22,-0.5l41.53 -86.99c83.91,-174.97 207.99,-339.67 341.88,-491.23 35.57,-36.43 71.31,-73 107.18,-109.7 36.18,-36.26 77.9,-67.04 116.63,-101.01l59.17 -49.95 63.86 -44.38c43.19,-28.76 84.55,-60.48 129.29,-87.13 178.35,-108.46 372.99,-192.04 576,-251.71l154.8 -36.01c25.63,-7.04 51.86,-11.05 78.32,-13.93l79.01 -10.42 78.95 -11.28c26.4,-3.02 53.13,-2.74 79.7,-4.29 53.22,-1.52 106.46,-6.43 159.74,-5.43 213.81,3.6 425.77,42 631.46,101.67l153.36 55.88c25.6,10.14 55.1,17.98 77.49,30l70.17 34.16 70.31 33.8 35.24 16.82 34.19 20.83 136.71 83.44c44.44,29.39 85.46,63.69 128.43,95.1 20.97,16.37 43.13,31.33 63.16,48.79l58.51 54.19c37.84,37.21 81.39,68.73 115.49,109.48l107.02 117.49c133.14,164.36 246.25,343.46 331.05,534.14 21.72,47.32 37.76,96.88 56.99,145.05l27.37 72.75 20.39 74.72c12.6,49.92 29.48,98.9 38.7,149.29 8.7,50.56 17.34,100.95 25.99,151.12 23.8,201.59 33.19,404.74 2.27,600.21 -7.62,98.96 -35.21,193.23 -55.46,288.11l-7.42 32.55 -11.86 35.21 -23.66 70.09c-16.65,45.74 -29.28,94.66 -48.92,136.94 -10.11,22.27 -20.11,44.24 -30.17,66.35 -3.02,6.43 -4.96,13.44 -4.96,21 0,27.98 23.13,50.64 51.69,50.64 17.23,0 31.75,-8.81 41.11,-21.53l0.53 0.8 3.13 -6.07c0.19,-0.36 0.5,-0.64 0.66,-1l0.42 0.47 33.52 -67.37 -0.17 0.03c0.86,-1.77 1.86,-3.44 2.71,-5.24 23.3,-44.68 37.48,-90.31 56.87,-135.88l27.37 -68.7 13.74 -34.52c6.04,-17.56 7.7,-25.96 11.77,-39.39 26.84,-98.37 60.95,-196.83 74.91,-301.02 43,-205.69 47.4,-423 30.31,-641.33 -6.87,-54.46 -13.8,-109.15 -20.72,-164.09z"/>
   <path class="fil1" d="M9979.54 1499.95l483.97 -545.72c4.93,-5.6 9.59,-11.3 13.91,-17.2 47.7,-64.74 57.12,-144.75 19.5,-186.22 -41.06,-45.29 -122.56,-27.56 -182.06,39.53l-483.97 545.72c-59.2,67.04 -74.44,158.18 -33.41,203.45 41.06,45.24 122.56,27.54 182.06,-39.56z"/>
   <path class="fil1" d="M8542.84 1029.22c57.51,20.67 121.15,-33.24 142.2,-120.43l171.07 -709.06c1.75,-7.26 3.16,-14.49 4.21,-21.69 11.72,-79.59 -17.54,-154.64 -70.23,-173.61 -57.48,-20.69 -121.15,33.22 -142.17,120.4l-171.07 709.06c-20.8,86.99 8.53,174.61 65.99,195.33z"/>
   <path class="fil1" d="M7085.22 1086.01c37.09,81.42 114.11,132.5 172.17,113.47 58.04,-19.03 75.1,-100.67 38.09,-182.37l-300.99 -664.4c-3.08,-6.79 -6.43,-13.35 -10.03,-19.72 -39.67,-69.95 -108.87,-111.17 -162.09,-93.72 -58.07,19 -75.13,100.65 -38.15,182.34l300.99 664.4z"/>
   <path class="fil1" d="M11392.87 2366.36c6.87,-2.91 13.52,-6.09 19.95,-9.56 70.84,-38.04 113.67,-106.27 97.46,-159.87 -17.65,-58.51 -98.87,-77.46 -181.4,-42.36l-671.24 285.48c-82.22,35.16 -135.08,110.98 -117.43,169.46 17.67,58.48 98.93,77.43 181.45,42.33l671.22 -285.48z"/>
   <path class="fil1" d="M11586.18 3915.27l-725.29 -77.18c-88.95,-9.28 -172.04,31.25 -185.06,90.92 -13.02,59.7 48.73,115.77 137.91,125.27l725.32 77.18c7.4,0.78 14.77,1.25 22.05,1.36 80.42,1.25 151.04,-37.54 162.98,-92.28 13.02,-59.67 -48.7,-115.77 -137.91,-125.27z"/>
   <path class="fil1" d="M5443.76 1506.74l557.02 470.9c68.43,57.62 159.9,70.7 204.2,28.62 44.24,-42.11 24.63,-123.17 -43.85,-181.09l-557.02 -470.92c-5.71,-4.79 -11.55,-9.31 -17.51,-13.49 -65.88,-46.15 -146.08,-53.69 -186.66,-15.07 -44.3,42.08 -24.66,123.14 43.83,181.07z"/>
   <g>
    <path class="fil0" d="M5515.06 6354.38c38.76,0 71.86,5.49 99.29,16.54 27.43,11.03 49.81,25.57 67.21,43.63 17.37,18.06 29.92,38.78 37.62,62.19 7.67,23.41 11.52,47.82 11.52,73.22l0 245.75c0,11.36 -6.01,21.05 -18.06,29.09 -12.02,8.01 -27.07,12.02 -45.13,12.02 -16.73,0 -30.58,-4.02 -41.64,-12.02 -11.03,-8.03 -16.54,-17.73 -16.54,-29.09l0 -29.09c-18.06,20.72 -39.28,39.12 -63.69,55.16 -24.41,16.04 -54.02,24.07 -88.79,24.07 -18.03,0 -34.93,-2.66 -50.64,-8.03 -15.74,-5.32 -29.42,-13.55 -41.11,-24.54 -11.72,-11.05 -21.08,-24.91 -28.09,-41.64 -7.04,-16.7 -10.53,-36.46 -10.53,-59.17 0,-28.76 5.65,-52.66 17.04,-71.72 11.39,-19.06 27.23,-34.1 47.65,-45.13 20.39,-11.05 44.96,-18.92 73.72,-23.6 28.76,-4.65 60.53,-7.01 95.3,-7.01l41.14 0 0 -13.05c0,-10.67 -1.52,-21.55 -4.54,-32.58 -3.02,-11.03 -8.01,-20.89 -15.04,-29.59 -7.01,-8.7 -16.04,-15.87 -27.07,-21.58 -11.03,-5.68 -24.93,-8.53 -41.61,-8.53 -19.42,0 -35.13,1.69 -47.15,5.01 -12.05,3.35 -22.08,6.87 -30.11,10.53 -8.01,3.68 -14.71,7.2 -20.06,10.55 -5.35,3.35 -11.03,5.01 -17.04,5.01 -14.74,0 -25.76,-7.04 -33.13,-21.05 -7.34,-14.07 -11,-28.42 -11,-43.13 0,-10.06 5.01,-19.59 15.02,-28.59 10.06,-9.03 22.91,-16.7 38.65,-23.08 15.71,-6.34 32.91,-11.36 51.64,-15.07 18.73,-3.66 37.12,-5.49 55.18,-5.49zm86.27 277.83l0 0 -15.07 0c-16.7,0 -32.94,0.69 -48.65,1.99 -15.71,1.36 -29.59,4.21 -41.61,8.53 -12.05,4.38 -21.75,10.69 -29.09,19.06 -7.37,8.37 -11.05,19.56 -11.05,33.6 0,18.73 5.01,32.44 15.04,41.14 10.03,8.67 22.74,13.02 38.15,13.02 10,0 20.53,-2.66 31.58,-8.03 11.03,-5.32 21.05,-12.52 30.09,-21.55 9.03,-9.03 16.37,-19.39 22.08,-31.08 5.68,-11.69 8.53,-23.58 8.53,-35.6l0 -21.08z"/>
    <path class="fil0" d="M5900.22 6082.53c17.37,0 32.61,3.71 45.65,11.05 13.02,7.37 19.53,17.04 19.53,29.09l0 673.05c0,10.03 -6.51,19.39 -19.53,28.09 -13.05,8.7 -28.28,13.02 -45.65,13.02 -19.39,0 -34.93,-4.32 -46.62,-13.02 -11.72,-8.7 -17.56,-18.06 -17.56,-28.09l0 -673.05c0,-12.05 5.85,-21.72 17.56,-29.09 11.69,-7.34 27.23,-11.05 46.62,-11.05z"/>
    <path class="fil0" d="M6138.94 6127.66c19.39,0 35.93,6.21 49.67,18.59 13.69,12.38 20.53,27.26 20.53,44.63 0,16.73 -6.84,31.44 -20.53,44.13 -13.74,12.72 -30.28,19.06 -49.67,19.06 -20.06,0 -36.96,-6.34 -50.64,-19.06 -13.71,-12.69 -20.58,-27.4 -20.58,-44.13 0,-17.37 6.87,-32.25 20.58,-44.63 13.69,-12.38 30.58,-18.59 50.64,-18.59zm0 232.73l0 0c18.06,0 33.44,3.68 46.13,11.03 12.72,7.37 19.06,17.07 19.06,29.09l0 395.21c0,10.03 -6.34,19.39 -19.06,28.09 -12.69,8.7 -28.06,13.02 -46.13,13.02 -18.73,0 -34.1,-4.32 -46.13,-13.02 -12.05,-8.7 -18.06,-18.06 -18.06,-28.09l0 -395.21c0,-12.02 6.01,-21.72 18.06,-29.09 12.02,-7.34 27.4,-11.03 46.13,-11.03z"/>
    <path class="fil0" d="M6594.32 6558c0,-28.09 -8.37,-50.17 -25.1,-66.21 -16.7,-16.04 -35.76,-24.07 -57.15,-24.07 -19.42,0 -37.29,7.7 -53.66,23.08 -16.4,15.38 -24.57,37.79 -24.57,67.21l0 237.72c0,10.03 -6.54,19.39 -19.56,28.09 -13.05,8.7 -28.28,13.02 -45.65,13.02 -19.39,0 -34.93,-4.32 -46.62,-13.02 -11.72,-8.7 -17.56,-18.06 -17.56,-28.09l0 -395.21c0,-12.02 5.85,-21.72 17.56,-29.09 11.69,-7.34 27.23,-11.03 46.62,-11.03 15.38,0 28.76,3.68 40.11,11.03 11.39,7.37 17.07,17.07 17.07,29.09l0 30.11c11.36,-19.39 27.92,-36.96 49.64,-52.69 21.72,-15.68 49.31,-23.55 82.75,-23.55 28.76,0 54.16,9.2 76.24,27.56 22.05,18.42 38.45,42.63 49.15,72.72 17.37,-34.1 39.62,-59.34 66.71,-75.71 27.07,-16.4 55.32,-24.57 84.74,-24.57 22.74,0 44.82,4.49 66.21,13.52 21.39,9.03 40.45,22.25 57.18,39.64 16.7,17.37 30.09,38.59 40.11,63.69 10.03,25.07 15.04,53.99 15.04,86.77l0 237.72c0,10.03 -6.51,19.39 -19.56,28.09 -13.05,8.7 -28.26,13.02 -45.63,13.02 -17.4,0 -32.44,-4.32 -45.16,-13.02 -12.69,-8.7 -19.03,-18.06 -19.03,-28.09l0 -237.72c0,-30.11 -8.53,-52.83 -25.6,-68.2 -17.07,-15.38 -35.6,-23.08 -55.66,-23.08 -20.08,0 -38.29,7.7 -54.66,23.08 -16.4,15.38 -24.6,37.76 -24.6,67.21l0 239.71c0,14.05 -6.84,24.24 -20.56,30.58 -13.71,6.37 -28.59,9.53 -44.63,9.53 -15.4,0 -29.92,-3.16 -43.63,-9.53 -13.71,-6.34 -20.56,-16.54 -20.56,-30.58l0 -238.72z"/>
    <path class="fil0" d="M7311.47 6354.38c27.43,0 53.66,4.68 78.76,14.02 25.07,9.39 47.12,22.25 66.18,38.62 19.06,16.4 34.1,36.12 45.16,59.2 11.03,23.08 16.54,48.65 16.54,76.74 0,21.39 -2.69,38.12 -8.03,50.14 -5.35,12.05 -12.52,20.89 -21.55,26.57 -9.03,5.71 -19.06,9.23 -30.09,10.55 -11.05,1.33 -22.25,1.99 -33.6,1.99l-203.62 0 0 15.04c0,29.45 10.67,52.83 32.08,70.23 21.39,17.37 49.81,26.07 85.27,26.07 16.7,0 31.08,-2.02 43.13,-6.01 12.02,-4.02 22.72,-8.37 32.08,-13.05 9.36,-4.65 17.9,-9.03 25.6,-13.05 7.67,-4.02 15.18,-6.01 22.55,-6.01 7.37,0 14.05,1.99 20.06,6.01 6.04,4.02 11.22,9.03 15.57,15.04 4.32,6.04 7.67,12.38 10.03,19.06 2.33,6.7 3.52,12.38 3.52,17.07 0,8.7 -4.21,17.9 -12.55,27.59 -8.37,9.7 -20.25,18.7 -35.6,27.07 -15.4,8.37 -33.96,15.24 -55.68,20.56 -21.72,5.37 -45.99,8.03 -72.72,8.03 -35.46,0 -68.04,-4.85 -97.79,-14.54 -29.75,-9.67 -55.35,-23.58 -76.74,-41.61 -21.41,-18.06 -38.12,-39.78 -50.14,-65.21 -12.05,-25.4 -18.06,-53.49 -18.06,-84.27l0 -85.24c0,-26.73 5.68,-52.33 17.04,-76.74 11.36,-24.41 26.93,-45.79 46.65,-64.19 19.72,-18.39 42.97,-32.94 69.73,-43.63 26.71,-10.69 55.49,-16.04 86.24,-16.04zm56.18 201.59l0 0c10.67,0 18.2,-1.66 22.58,-5.01 4.32,-3.32 6.51,-10.69 6.51,-22.08 0,-23.38 -8.7,-42.44 -26.1,-57.15 -17.37,-14.71 -38.09,-22.05 -62.17,-22.05 -22.74,0 -43,7.01 -60.7,21.05 -17.73,14.02 -26.57,33.08 -26.57,57.15l0 28.09 146.44 0z"/>
    <path class="fil0" d="M7724.71 6795.72c0,10.03 -6.51,19.39 -19.53,28.09 -13.05,8.7 -28.28,13.02 -45.65,13.02 -19.39,0 -34.93,-4.32 -46.62,-13.02 -11.72,-8.7 -17.56,-18.06 -17.56,-28.09l0 -395.21c0,-12.02 5.85,-21.72 17.56,-29.09 11.69,-7.34 27.23,-11.03 46.62,-11.03 15.38,0 28.73,3.68 40.11,11.03 11.39,7.37 17.07,17.07 17.07,29.09l0 30.11c9.36,-19.39 25.74,-36.96 49.15,-52.69 23.38,-15.68 51.83,-23.55 85.27,-23.55 22.72,0 44.63,5.35 65.68,16.04 21.05,10.69 39.45,25.43 55.16,44.13 15.71,18.73 28.26,40.28 37.62,64.69 9.36,24.43 14.05,50.67 14.05,78.76l0 237.72c0,13.38 -6.87,23.58 -20.56,30.58 -13.71,7.04 -28.59,10.53 -44.63,10.53 -15.4,0 -29.95,-3.49 -43.63,-10.53 -13.74,-7.01 -20.58,-17.2 -20.58,-30.58l0 -237.72c0,-11.36 -2.35,-22.41 -7.01,-33.11 -4.68,-10.69 -10.89,-20.39 -18.56,-29.09 -7.7,-8.7 -16.9,-15.54 -27.56,-20.58 -10.72,-5.01 -22.08,-7.51 -34.13,-7.51 -20.72,0 -39.62,8.03 -56.65,24.07 -17.07,16.04 -25.6,38.12 -25.6,66.21l0 237.72z"/>
    <path class="fil0" d="M8248.3 6674.35c0,19.39 4.02,33.08 12.05,41.11 8.01,8.03 22.72,12.02 44.13,12.02l39.12 0c18.73,0 32.61,5.71 41.64,17.07 9,11.39 13.55,23.74 13.55,37.12 0,14.05 -4.54,26.76 -13.55,38.12 -9.03,11.39 -22.91,17.04 -41.64,17.04l-39.12 0c-60.86,0 -106.99,-12.85 -138.43,-38.62 -31.44,-25.74 -47.15,-67.04 -47.15,-123.86l0 -486.47c0,-12.05 6.87,-21.75 20.58,-29.12 13.71,-7.34 28.26,-11.03 43.63,-11.03 16.7,0 31.75,3.68 45.13,11.03 13.38,7.37 20.06,17.07 20.06,29.12l0 172.51 118.38 0c10.67,0 18.89,5.01 24.57,15.04 5.68,10.03 8.53,20.75 8.53,32.11 0,12.02 -2.85,22.91 -8.53,32.61 -5.68,9.67 -13.91,14.52 -24.57,14.52l-118.38 0 0 219.68z"/>
    <path class="fil0" d="M8662.57 6354.38c28.73,0 56.32,5.35 82.75,16.04 26.4,10.69 49.64,25.43 69.7,44.13 20.06,18.73 35.96,40.28 47.65,64.69 11.69,24.43 17.56,50.67 17.56,78.76l0 82.22c0,26.76 -5.87,52.52 -17.56,77.26 -11.69,24.74 -27.59,46.62 -47.65,65.68 -20.06,19.06 -43.3,34.27 -69.7,45.63 -26.43,11.39 -54.02,17.07 -82.75,17.07 -29.42,0 -57.35,-5.68 -83.77,-17.07 -26.4,-11.36 -49.48,-26.4 -69.2,-45.13 -19.72,-18.7 -35.43,-40.45 -47.15,-65.19 -11.69,-24.74 -17.54,-50.84 -17.54,-78.26l0 -82.22c0,-26.73 5.68,-52.5 17.04,-77.24 11.36,-24.74 26.93,-46.46 46.65,-65.21 19.72,-18.7 42.77,-33.6 69.2,-44.63 26.43,-11.05 54.66,-16.54 84.77,-16.54zm88.26 203.62l0 0c0,-11.36 -2.35,-22.41 -7.04,-33.11 -4.68,-10.69 -11.03,-20.39 -19.03,-29.09 -8.03,-8.7 -17.43,-15.54 -28.12,-20.58 -10.67,-5.01 -22.05,-7.51 -34.07,-7.51 -12.05,0 -23.44,2.49 -34.13,7.51 -10.67,5.04 -20.06,11.88 -28.06,20.58 -8.03,8.7 -14.38,18.39 -19.06,29.09 -4.68,10.69 -7.01,21.75 -7.01,33.11l0 82.22c0,12.05 2.33,23.6 7.01,34.63 4.68,11.03 11.03,20.72 19.06,29.09 8.01,8.37 17.4,15.21 28.06,20.56 10.69,5.35 22.08,8.03 34.13,8.03 12.02,0 23.41,-2.69 34.07,-8.03 10.69,-5.35 20.08,-12.19 28.12,-20.56 8.01,-8.37 14.35,-18.06 19.03,-29.09 4.68,-11.03 7.04,-22.58 7.04,-34.63l0 -82.22z"/>
    <path class="fil0" d="M9113.94 6747.57c29.39,0 48.98,-4.68 58.68,-14.05 9.67,-9.36 14.52,-19.06 14.52,-29.09 0,-14.71 -5.85,-26.1 -17.54,-34.1 -11.72,-8.03 -26.43,-14.71 -44.13,-20.06 -17.73,-5.35 -36.79,-10.86 -57.18,-16.57 -20.39,-5.65 -39.45,-13.35 -57.18,-23.05 -17.73,-9.7 -32.44,-22.91 -44.13,-39.64 -11.72,-16.7 -17.56,-39.12 -17.56,-67.21 0,-18.03 3.02,-35.93 9.06,-53.66 5.98,-17.7 16.04,-33.6 30.06,-47.62 14.07,-14.05 32.61,-25.6 55.68,-34.63 23.08,-9.03 51.31,-13.52 84.77,-13.52 20.06,0 39.75,1.66 59.15,5.01 19.39,3.35 36.46,7.87 51.17,13.55 14.71,5.68 26.59,12.52 35.63,20.56 9,8.01 13.55,16.73 13.55,26.07 0,4.68 -1.03,10.53 -3.02,17.56 -2.02,7.01 -5.01,13.88 -9.03,20.56 -4.02,6.68 -9.03,12.38 -15.04,17.07 -6.04,4.68 -12.72,7.01 -20.06,7.01 -6.04,0 -12.55,-1.5 -19.59,-4.52 -7.01,-3.02 -15.02,-6.34 -24.07,-10.03 -9,-3.68 -18.89,-7.01 -29.59,-10.03 -10.69,-3.02 -23.05,-4.52 -37.09,-4.52 -25.43,0 -43.49,5.01 -54.16,15.04 -10.69,10.03 -16.07,20.06 -16.07,30.11 0,12.02 6.04,21.39 18.06,28.06 12.05,6.68 26.9,12.52 44.66,17.56 17.7,5.01 36.93,10.36 57.68,16.04 20.69,5.68 39.92,13.91 57.65,24.57 17.7,10.69 32.61,25.24 44.63,43.63 12.05,18.39 18.06,42.3 18.06,71.72 0,44.8 -15.87,80.42 -47.62,106.82 -31.78,26.43 -77.43,39.62 -136.94,39.62 -25.43,0 -49.15,-2.35 -71.2,-7.01 -22.08,-4.68 -41.31,-11.05 -57.68,-19.06 -16.43,-8.03 -29.28,-17.2 -38.65,-27.59 -9.36,-10.36 -14.02,-21.22 -14.02,-32.61 0,-5.35 1,-11.36 2.99,-18.06 2.02,-6.68 5.01,-12.85 9.03,-18.53 4.02,-5.68 8.67,-10.53 14.05,-14.54 5.35,-4.02 11.03,-6.04 17.07,-6.04 7.34,0 14.54,2.38 21.55,7.04 7.01,4.68 15.54,9.86 25.57,15.54 10.03,5.71 21.91,10.89 35.63,15.57 13.69,4.65 31.22,7.01 52.66,7.01z"/>
   </g>
  </g>
 </g>
</svg>
